{
  "accessors": [
    {
      "bufferView": 2,
      "componentType": 5126,
      "count": 3337,
      "max": [
        16.951435089111328,
        15.350357055664063,
        8.059738159179688
      ],
      "min": [
        -17.033531188964844,
        -15.048501968383789,
        -10.247140884399414
      ],
      "type": "VEC3"
    },
    {
      "bufferView": 2,
      "byteOffset": 40044,
      "componentType": 5126,
      "count": 3337,
      "max": [
        0.996375560760498,
        0.9959935545921326,
        0.9999991655349731
      ],
      "min": [
        -0.9961934685707092,
        -0.9960154891014099,
        -0.9999980330467224
      ],
      "type": "VEC3"
    },
    {
      "bufferView": 1,
      "componentType": 5126,
      "count": 3337,
      "max": [
        0.875,
        1.0242515802383423
      ],
      "min": [
        0.0,
        0.0
      ],
      "type": "VEC2"
    },
    {
      "bufferView": 0,
      "componentType": 5125,
      "count": 6189,
      "type": "SCALAR"
    },
    {
      "bufferView": 2,
      "byteOffset": 80088,
      "componentType": 5126,
      "count": 164,
      "max": [
        13.488155364990234,
        11.837484359741211,
        8.059619903564453
      ],
      "min": [
        -13.485995292663574,
        -11.695821762084961,
        -3.265260934829712
      ],
      "type": "VEC3"
    },
    {
      "bufferView": 2,
      "byteOffset": 82056,
      "componentType": 5126,
      "count": 164,
      "max": [
        0.9364145994186401,
        0.817150890827179,
        0.7532036304473877
      ],
      "min": [
        -0.9961934685707092,
        -0.9559681415557861,
        -0.0004577914369292557
      ],
      "type": "VEC3"
    },
    {
      "bufferView": 1,
      "byteOffset": 26696,
      "componentType": 5126,
      "count": 164,
      "max": [
        0.7083333134651184,
        0.5
      ],
      "min": [
        0.0,
        0.0
      ],
      "type": "VEC2"
    },
    {
      "bufferView": 0,
      "byteOffset": 24756,
      "componentType": 5125,
      "count": 390,
      "type": "SCALAR"
    },
    {
      "bufferView": 2,
      "byteOffset": 84024,
      "componentType": 5126,
      "count": 713,
      "max": [
        13.592500686645508,
        2.964294910430908,
        -0.40656721591949463
      ],
      "min": [
        -5.861807823181152,
        -11.968690872192383,
        -2.2597146034240723
      ],
      "type": "VEC3"
    },
    {
      "bufferView": 2,
      "byteOffset": 92580,
      "componentType": 5126,
      "count": 713,
      "max": [
        1.0,
        1.0,
        1.0
      ],
      "min": [
        -1.0,
        -1.0,
        -1.0
      ],
      "type": "VEC3"
    },
    {
      "bufferView": 1,
      "byteOffset": 28008,
      "componentType": 5126,
      "count": 713,
      "max": [
        0.0,
        0.0
      ],
      "min": [
        0.0,
        0.0
      ],
      "type": "VEC2"
    },
    {
      "bufferView": 0,
      "byteOffset": 26316,
      "componentType": 5125,
      "count": 1134,
      "type": "SCALAR"
    },
    {
      "bufferView": 2,
      "byteOffset": 101136,
      "componentType": 5126,
      "count": 672,
      "max": [
        13.339958190917969,
        11.690006256103516,
        -0.4258752763271332
      ],
      "min": [
        -13.304192543029785,
        -11.367350578308105,
        -1.1656138896942139
      ],
      "type": "VEC3"
    },
    {
      "bufferView": 2,
      "byteOffset": 109200,
      "componentType": 5126,
      "count": 672,
      "max": [
        0.9937371015548706,
        0.9937368631362915,
        0.9999955296516418
      ],
      "min": [
        -0.9937371611595154,
        -0.9937368631362915,
        -0.9999955296516418
      ],
      "type": "VEC3"
    },
    {
      "bufferView": 1,
      "byteOffset": 33712,
      "componentType": 5126,
      "count": 672,
      "max": [
        0.0,
        0.0
      ],
      "min": [
        0.0,
        0.0
      ],
      "type": "VEC2"
    },
    {
      "bufferView": 0,
      "byteOffset": 30852,
      "componentType": 5125,
      "count": 1116,
      "type": "SCALAR"
    },
    {
      "bufferView": 2,
      "byteOffset": 117264,
      "componentType": 5126,
      "count": 144,
      "max": [
        -4.748780250549316,
        -2.8120369911193848,
        1.0063247680664063
      ],
      "min": [
        -13.104454040527344,
        -11.167716979980469,
        -0.45152807235717773
      ],
      "type": "VEC3"
    },
    {
      "bufferView": 2,
      "byteOffset": 118992,
      "componentType": 5126,
      "count": 144,
      "max": [
        0.9955924153327942,
        0.995419979095459,
        0.9999485015869141
      ],
      "min": [
        -0.9928895235061646,
        -0.9936020374298096,
        0.03824061155319214
      ],
      "type": "VEC3"
    },
    {
      "bufferView": 1,
      "byteOffset": 39088,
      "componentType": 5126,
      "count": 144,
      "max": [
        0.8330186605453491,
        0.8674713969230652
      ],
      "min": [
        0.16938363015651703,
        0.16513511538505554
      ],
      "type": "VEC2"
    },
    {
      "bufferView": 0,
      "byteOffset": 35316,
      "componentType": 5125,
      "count": 810,
      "type": "SCALAR"
    },
    {
      "bufferView": 2,
      "byteOffset": 120720,
      "componentType": 5126,
      "count": 144,
      "max": [
        4.197956085205078,
        4.341088771820068,
        0.9720264673233032
      ],
      "min": [
        -4.157717227935791,
        -4.014591217041016,
        -0.485826313495636
      ],
      "type": "VEC3"
    },
    {
      "bufferView": 2,
      "byteOffset": 122448,
      "componentType": 5126,
      "count": 144,
      "max": [
        0.9955924153327942,
        0.995419979095459,
        0.9999485015869141
      ],
      "min": [
        -0.9928895235061646,
        -0.9936020374298096,
        0.03824061155319214
      ],
      "type": "VEC3"
    },
    {
      "bufferView": 1,
      "byteOffset": 40240,
      "componentType": 5126,
      "count": 144,
      "max": [
        0.8330186605453491,
        0.8674713969230652
      ],
      "min": [
        0.16938363015651703,
        0.16513511538505554
      ],
      "type": "VEC2"
    },
    {
      "bufferView": 0,
      "byteOffset": 38556,
      "componentType": 5125,
      "count": 810,
      "type": "SCALAR"
    },
    {
      "bufferView": 2,
      "byteOffset": 124176,
      "componentType": 5126,
      "count": 144,
      "max": [
        13.141643524169922,
        11.491691589355469,
        0.9375910758972168
      ],
      "min": [
        4.785970687866211,
        3.1360116004943848,
        -0.5202617049217224
      ],
      "type": "VEC3"
    },
    {
      "bufferView": 2,
      "byteOffset": 125904,
      "componentType": 5126,
      "count": 144,
      "max": [
        0.9955924153327942,
        0.995419979095459,
        0.9999485015869141
      ],
      "min": [
        -0.9928895235061646,
        -0.9936020374298096,
        0.038271088153123856
      ],
      "type": "VEC3"
    },
    {
      "bufferView": 1,
      "byteOffset": 41392,
      "componentType": 5126,
      "count": 144,
      "max": [
        0.8330186605453491,
        0.8674713969230652
      ],
      "min": [
        0.16938363015651703,
        0.16513511538505554
      ],
      "type": "VEC2"
    },
    {
      "bufferView": 0,
      "byteOffset": 41796,
      "componentType": 5125,
      "count": 810,
      "type": "SCALAR"
    },
    {
      "bufferView": 2,
      "byteOffset": 127632,
      "componentType": 5126,
      "count": 652,
      "max": [
        0.1852763146162033,
        0.7289397716522217,
        -0.02126721665263176
      ],
      "min": [
        -0.2108861804008484,
        -0.7203266024589539,
        -0.050920311361551285
      ],
      "type": "VEC3"
    },
    {
      "bufferView": 2,
      "byteOffset": 135456,
      "componentType": 5126,
      "count": 652,
      "max": [
        0.9999995827674866,
        0.9999995827674866,
        1.0
      ],
      "min": [
        -0.9999995827674866,
        -0.9999995827674866,
        -1.0
      ],
      "type": "VEC3"
    },
    {
      "bufferView": 1,
      "byteOffset": 42544,
      "componentType": 5126,
      "count": 652,
      "max": [
        0.0,
        0.0
      ],
      "min": [
        0.0,
        0.0
      ],
      "type": "VEC2"
    },
    {
      "bufferView": 0,
      "byteOffset": 45036,
      "componentType": 5125,
      "count": 1116,
      "type": "SCALAR"
    },
    {
      "bufferView": 2,
      "byteOffset": 143280,
      "componentType": 5126,
      "count": 144,
      "max": [
        0.1763000339269638,
        0.1934964656829834,
        0.04527691379189491
      ],
      "min": [
        -0.20190228521823883,
        -0.184705913066864,
        -0.021276721730828285
      ],
      "type": "VEC3"
    },
    {
      "bufferView": 2,
      "byteOffset": 145008,
      "componentType": 5126,
      "count": 144,
      "max": [
        0.9795148968696594,
        0.980156660079956,
        0.9999713897705078
      ],
      "min": [
        -0.979121744632721,
        -0.9772117137908936,
        0.04123152419924736
      ],
      "type": "VEC3"
    },
    {
      "bufferView": 1,
      "byteOffset": 47760,
      "componentType": 5126,
      "count": 144,
      "max": [
        0.8330186605453491,
        0.8674713969230652
      ],
      "min": [
        0.16938363015651703,
        0.16513511538505554
      ],
      "type": "VEC2"
    },
    {
      "bufferView": 0,
      "byteOffset": 49500,
      "componentType": 5125,
      "count": 810,
      "type": "SCALAR"
    },
    {
      "bufferView": 2,
      "byteOffset": 146736,
      "componentType": 5126,
      "count": 3335,
      "max": [
        0.28324007987976074,
        0.7918446063995361,
        0.3689057528972626
      ],
      "min": [
        -0.3047744631767273,
        -0.7875572443008423,
        -0.4682524502277374
      ],
      "type": "VEC3"
    },
    {
      "bufferView": 2,
      "byteOffset": 186756,
      "componentType": 5126,
      "count": 3335,
      "max": [
        1.0,
        1.0,
        1.0
      ],
      "min": [
        -1.0,
        -1.0,
        -1.0
      ],
      "type": "VEC3"
    },
    {
      "bufferView": 1,
      "byteOffset": 48912,
      "componentType": 5126,
      "count": 3335,
      "max": [
        0.875,
        1.0242515802383423
      ],
      "min": [
        0.0,
        0.0
      ],
      "type": "VEC2"
    },
    {
      "bufferView": 0,
      "byteOffset": 52740,
      "componentType": 5125,
      "count": 6189,
      "type": "SCALAR"
    },
    {
      "bufferView": 2,
      "byteOffset": 226776,
      "componentType": 5126,
      "count": 164,
      "max": [
        0.2585380971431732,
        0.7345696091651917,
        0.3689057528972626
      ],
      "min": [
        -0.27739766240119934,
        -0.7137895226478577,
        -0.14879365265369415
      ],
      "type": "VEC3"
    },
    {
      "bufferView": 2,
      "byteOffset": 228744,
      "componentType": 5126,
      "count": 164,
      "max": [
        0.9808788895606995,
        0.8219142556190491,
        0.753925621509552
      ],
      "min": [
        -1.0,
        -1.0,
        -2.2863496269565076e-06
      ],
      "type": "VEC3"
    },
    {
      "bufferView": 1,
      "byteOffset": 75592,
      "componentType": 5126,
      "count": 164,
      "max": [
        0.7083333134651184,
        0.5
      ],
      "min": [
        0.0,
        0.0
      ],
      "type": "VEC2"
    },
    {
      "bufferView": 0,
      "byteOffset": 77496,
      "componentType": 5125,
      "count": 390,
      "type": "SCALAR"
    },
    {
      "bufferView": 2,
      "byteOffset": 230712,
      "componentType": 5126,
      "count": 732,
      "max": [
        0.29073524475097656,
        0.5657803416252136,
        -0.01977596804499626
      ],
      "min": [
        0.2393207848072052,
        -0.5485610961914063,
        -0.10191228240728378
      ],
      "type": "VEC3"
    },
    {
      "bufferView": 2,
      "byteOffset": 239496,
      "componentType": 5126,
      "count": 732,
      "max": [
        0.9886440634727478,
        0.931326150894165,
        0.9999955296516418
      ],
      "min": [
        -0.9886443614959717,
        -0.9313267469406128,
        -0.9999955296516418
      ],
      "type": "VEC3"
    },
    {
      "bufferView": 1,
      "byteOffset": 76904,
      "componentType": 5126,
      "count": 732,
      "max": [
        0.0,
        0.0
      ],
      "min": [
        0.0,
        0.0
      ],
      "type": "VEC2"
    },
    {
      "bufferView": 0,
      "byteOffset": 79056,
      "componentType": 5125,
      "count": 1143,
      "type": "SCALAR"
    },
    {
      "bufferView": 2,
      "byteOffset": 248280,
      "componentType": 5126,
      "count": 144,
      "max": [
        0.17629268765449524,
        -0.3331480026245117,
        0.045286405831575394
      ],
      "min": [
        -0.201909601688385,
        -0.7113503217697144,
        -0.021267224103212357
      ],
      "type": "VEC3"
    },
    {
      "bufferView": 2,
      "byteOffset": 250008,
      "componentType": 5126,
      "count": 144,
      "max": [
        0.9795148968696594,
        0.980156660079956,
        0.9999713897705078
      ],
      "min": [
        -0.979121744632721,
        -0.9772091507911682,
        0.04123152419924736
      ],
      "type": "VEC3"
    },
    {
      "bufferView": 1,
      "byteOffset": 82760,
      "componentType": 5126,
      "count": 144,
      "max": [
        0.8330186605453491,
        0.8674713969230652
      ],
      "min": [
        0.16938363015651703,
        0.16513511538505554
      ],
      "type": "VEC2"
    },
    {
      "bufferView": 0,
      "byteOffset": 83628,
      "componentType": 5125,
      "count": 810,
      "type": "SCALAR"
    },
    {
      "bufferView": 2,
      "byteOffset": 251736,
      "componentType": 5126,
      "count": 144,
      "max": [
        0.17629238963127136,
        0.719963550567627,
        0.045276906341314316
      ],
      "min": [
        -0.2019098997116089,
        0.34176117181777954,
        -0.021276721730828285
      ],
      "type": "VEC3"
    },
    {
      "bufferView": 2,
      "byteOffset": 253464,
      "componentType": 5126,
      "count": 144,
      "max": [
        0.9795148968696594,
        0.980156660079956,
        0.9999713897705078
      ],
      "min": [
        -0.979121744632721,
        -0.9772117137908936,
        0.04123152419924736
      ],
      "type": "VEC3"
    },
    {
      "bufferView": 1,
      "byteOffset": 83912,
      "componentType": 5126,
      "count": 144,
      "max": [
        0.8330186605453491,
        0.8674713969230652
      ],
      "min": [
        0.16938363015651703,
        0.16513511538505554
      ],
      "type": "VEC2"
    },
    {
      "bufferView": 0,
      "byteOffset": 86868,
      "componentType": 5125,
      "count": 810,
      "type": "SCALAR"
    },
    {
      "bufferView": 2,
      "byteOffset": 255192,
      "componentType": 5126,
      "count": 3337,
      "max": [
        16.949462890625,
        15.340302467346191,
        8.063158988952637
      ],
      "min": [
        -17.035747528076172,
        -15.058680534362793,
        -10.243475914001465
      ],
      "type": "VEC3"
    },
    {
      "bufferView": 2,
      "byteOffset": 295236,
      "componentType": 5126,
      "count": 3337,
      "max": [
        0.9963754415512085,
        0.9960073232650757,
        0.9999991655349731
      ],
      "min": [
        -0.9961882829666138,
        -0.9960154891014099,
        -0.9999980330467224
      ],
      "type": "VEC3"
    },
    {
      "bufferView": 1,
      "byteOffset": 85064,
      "componentType": 5126,
      "count": 3337,
      "max": [
        0.875,
        1.0242515802383423
      ],
      "min": [
        0.0,
        0.0
      ],
      "type": "VEC2"
    },
    {
      "bufferView": 0,
      "byteOffset": 90108,
      "componentType": 5125,
      "count": 6189,
      "type": "SCALAR"
    },
    {
      "bufferView": 2,
      "byteOffset": 335280,
      "componentType": 5126,
      "count": 164,
      "max": [
        13.486180305480957,
        11.827428817749023,
        8.063040733337402
      ],
      "min": [
        -13.488213539123535,
        -11.705998420715332,
        -3.261594533920288
      ],
      "type": "VEC3"
    },
    {
      "bufferView": 2,
      "byteOffset": 337248,
      "componentType": 5126,
      "count": 164,
      "max": [
        0.9364145994186401,
        0.8074271082878113,
        0.7532036304473877
      ],
      "min": [
        -0.9961882829666138,
        -0.955976665019989,
        -0.0004577919316943735
      ],
      "type": "VEC3"
    },
    {
      "bufferView": 1,
      "byteOffset": 111760,
      "componentType": 5126,
      "count": 164,
      "max": [
        0.7083333134651184,
        0.5
      ],
      "min": [
        0.0,
        0.0
      ],
      "type": "VEC2"
    },
    {
      "bufferView": 0,
      "byteOffset": 114864,
      "componentType": 5125,
      "count": 390,
      "type": "SCALAR"
    },
    {
      "bufferView": 2,
      "byteOffset": 339216,
      "componentType": 5126,
      "count": 703,
      "max": [
        13.59052562713623,
        2.954237937927246,
        -0.4031446874141693
      ],
      "min": [
        -5.864026069641113,
        -11.978869438171387,
        -2.2560482025146484
      ],
      "type": "VEC3"
    },
    {
      "bufferView": 2,
      "byteOffset": 347652,
      "componentType": 5126,
      "count": 703,
      "max": [
        1.0,
        1.0,
        1.0
      ],
      "min": [
        -1.0,
        -1.0,
        -1.0
      ],
      "type": "VEC3"
    },
    {
      "bufferView": 1,
      "byteOffset": 113072,
      "componentType": 5126,
      "count": 703,
      "max": [
        0.0,
        0.0
      ],
      "min": [
        0.0,
        0.0
      ],
      "type": "VEC2"
    },
    {
      "bufferView": 0,
      "byteOffset": 116424,
      "componentType": 5125,
      "count": 1134,
      "type": "SCALAR"
    },
    {
      "bufferView": 2,
      "byteOffset": 356088,
      "componentType": 5126,
      "count": 672,
      "max": [
        13.337898254394531,
        11.679980278015137,
        -0.4223274886608124
      ],
      "min": [
        -13.306208610534668,
        -11.377358436584473,
        -1.162179946899414
      ],
      "type": "VEC3"
    },
    {
      "bufferView": 2,
      "byteOffset": 364152,
      "componentType": 5126,
      "count": 672,
      "max": [
        0.9937371015548706,
        0.9937368631362915,
        0.9999955296516418
      ],
      "min": [
        -0.9937371611595154,
        -0.9937368631362915,
        -0.9999955296516418
      ],
      "type": "VEC3"
    },
    {
      "bufferView": 1,
      "byteOffset": 118696,
      "componentType": 5126,
      "count": 672,
      "max": [
        0.0,
        0.0
      ],
      "min": [
        0.0,
        0.0
      ],
      "type": "VEC2"
    },
    {
      "bufferView": 0,
      "byteOffset": 120960,
      "componentType": 5125,
      "count": 1116,
      "type": "SCALAR"
    },
    {
      "bufferView": 2,
      "byteOffset": 372216,
      "componentType": 5126,
      "count": 144,
      "max": [
        -4.750796318054199,
        -2.8220443725585938,
        1.0098726749420166
      ],
      "min": [
        -13.106471061706543,
        -11.17772388458252,
        -0.44798025488853455
      ],
      "type": "VEC3"
    },
    {
      "bufferView": 2,
      "byteOffset": 373944,
      "componentType": 5126,
      "count": 144,
      "max": [
        0.9955924153327942,
        0.995419979095459,
        0.9999485015869141
      ],
      "min": [
        -0.9928869605064392,
        -0.9936020374298096,
        0.038271088153123856
      ],
      "type": "VEC3"
    },
    {
      "bufferView": 1,
      "byteOffset": 124072,
      "componentType": 5126,
      "count": 144,
      "max": [
        0.8330186605453491,
        0.8674713969230652
      ],
      "min": [
        0.16938363015651703,
        0.16513511538505554
      ],
      "type": "VEC2"
    },
    {
      "bufferView": 0,
      "byteOffset": 125424,
      "componentType": 5125,
      "count": 810,
      "type": "SCALAR"
    },
    {
      "bufferView": 2,
      "byteOffset": 375672,
      "componentType": 5126,
      "count": 144,
      "max": [
        4.195858478546143,
        4.331031799316406,
        0.9754486680030823
      ],
      "min": [
        -4.159814834594727,
        -4.024648666381836,
        -0.48240402340888977
      ],
      "type": "VEC3"
    },
    {
      "bufferView": 2,
      "byteOffset": 377400,
      "componentType": 5126,
      "count": 144,
      "max": [
        0.9955924153327942,
        0.995419979095459,
        0.9999485015869141
      ],
      "min": [
        -0.9928895235061646,
        -0.9936020374298096,
        0.038271088153123856
      ],
      "type": "VEC3"
    },
    {
      "bufferView": 1,
      "byteOffset": 125224,
      "componentType": 5126,
      "count": 144,
      "max": [
        0.8330186605453491,
        0.8674713969230652
      ],
      "min": [
        0.16938363015651703,
        0.16513511538505554
      ],
      "type": "VEC2"
    },
    {
      "bufferView": 0,
      "byteOffset": 128664,
      "componentType": 5125,
      "count": 810,
      "type": "SCALAR"
    },
    {
      "bufferView": 2,
      "byteOffset": 379128,
      "componentType": 5126,
      "count": 144,
      "max": [
        13.139583587646484,
        11.481666564941406,
        0.9410248398780823
      ],
      "min": [
        4.783910751342773,
        3.125986099243164,
        -0.5168278813362122
      ],
      "type": "VEC3"
    },
    {
      "bufferView": 2,
      "byteOffset": 380856,
      "componentType": 5126,
      "count": 144,
      "max": [
        0.9955924153327942,
        0.995419979095459,
        0.9999485015869141
      ],
      "min": [
        -0.9928895235061646,
        -0.9936020374298096,
        0.03824061155319214
      ],
      "type": "VEC3"
    },
    {
      "bufferView": 1,
      "byteOffset": 126376,
      "componentType": 5126,
      "count": 144,
      "max": [
        0.8330186605453491,
        0.8674713969230652
      ],
      "min": [
        0.16938363015651703,
        0.16513511538505554
      ],
      "type": "VEC2"
    },
    {
      "bufferView": 0,
      "byteOffset": 131904,
      "componentType": 5125,
      "count": 810,
      "type": "SCALAR"
    }
  ],
  "asset": {
    "extras": {
      "author": "Signalrenders (https://sketchfab.com/Signalrenders)",
      "license": "CC-BY-4.0 (http://creativecommons.org/licenses/by/4.0/)",
      "source": "https://sketchfab.com/3d-models/8-inch-ge-dr6-traffic-signals-64eccd680a254434b329a6a32aaa571f",
      "title": "8-Inch GE Dr6 Traffic Signals"
    },
    "generator": "Sketchfab-12.70.0",
    "version": "2.0"
  },
  "bufferViews": [
    {
      "buffer": 0,
      "byteLength": 135144,
      "name": "floatBufferViews",
      "target": 34963
    },
    {
      "buffer": 0,
      "byteLength": 127528,
      "byteOffset": 135144,
      "byteStride": 8,
      "name": "floatBufferViews",
      "target": 34962
    },
    {
      "buffer": 0,
      "byteLength": 382584,
      "byteOffset": 262672,
      "byteStride": 12,
      "name": "floatBufferViews",
      "target": 34962
    }
  ],
  "buffers": [
    {
      "byteLength": 645256,
      "uri": "scene.bin"
    }
  ],
  "images": [
    {
      "uri": "textures/DR6_8inch_lens_OFF_baseColor.jpeg"
    },
    {
      "uri": "textures/dr6_8inch_amber_OFF_baseColor.jpeg"
    },
    {
      "uri": "textures/dr6_8inch_red_ON_baseColor.jpeg"
    },
    {
      "uri": "textures/dr6_8inch_amber_ON_baseColor.jpeg"
    },
    {
      "uri": "textures/dr6_8inch_red_OFF_baseColor.jpeg"
    },
    {
      "uri": "textures/DR6_8inch_green_ON_baseColor.jpeg"
    }
  ],
  "materials": [
    {
      "doubleSided": true,
      "name": "Aluminum.001",
      "pbrMetallicRoughness": {
        "baseColorFactor": [
          0.0173877,
          0.0173877,
          0.0173877,
          1.0
        ],
        "metallicFactor": 0.4881239017687224,
        "roughnessFactor": 0.0049562565905175646
      }
    },
    {
      "doubleSided": true,
      "name": "inner_visor.001",
      "pbrMetallicRoughness": {
        "baseColorFactor": [
          0.00154748,
          0.00154748,
          0.00154748,
          1.0
        ],
        "metallicFactor": 0.8407739452419605,
        "roughnessFactor": 0.9995466297507448
      }
    },
    {
      "doubleSided": true,
      "emissiveFactor": [
        0.0699784,
        0.0699784,
        0.0699784
      ],
      "name": "wingnuts",
      "pbrMetallicRoughness": {
        "baseColorFactor": [
          0.661864,
          0.661864,
          0.661864,
          1.0
        ],
        "metallicFactor": 0.8954955037119458,
        "roughnessFactor": 0.8622219807302374
      }
    },
    {
      "doubleSided": true,
      "name": "rubber_rim",
      "pbrMetallicRoughness": {
        "baseColorFactor": [
          0.0146695,
          0.0146695,
          0.0146695,
          1.0
        ],
        "metallicFactor": 0.0
      }
    },
    {
      "doubleSided": true,
      "name": "DR6_8inch_lens_OFF",
      "pbrMetallicRoughness": {
        "baseColorTexture": {
          "index": 0
        },
        "metallicFactor": 0.0,
        "roughnessFactor": 0.0
      }
    },
    {
      "doubleSided": true,
      "name": "dr6_8inch_amber_OFF",
      "pbrMetallicRoughness": {
        "baseColorTexture": {
          "index": 1
        },
        "metallicFactor": 0.0,
        "roughnessFactor": 0.0
      }
    },
    {
      "doubleSided": true,
      "emissiveFactor": [
        1.0,
        0.0,
        0.0
      ],
      "name": "dr6_8inch_red_ON",
      "pbrMetallicRoughness": {
        "baseColorTexture": {
          "index": 2
        },
        "metallicFactor": 0.0,
        "roughnessFactor": 0.0
      }
    },
    {
      "doubleSided": true,
      "emissiveFactor": [
        0.5035143400884058,
        0.2579209884992915,
        0.0
      ],
      "name": "dr6_8inch_amber_ON",
      "pbrMetallicRoughness": {
        "baseColorTexture": {
          "index": 3
        },
        "metallicFactor": 0.0,
        "roughnessFactor": 0.0
      }
    },
    {
      "doubleSided": true,
      "name": "dr6_8inch_red_OFF",
      "pbrMetallicRoughness": {
        "baseColorTexture": {
          "index": 4
        },
        "metallicFactor": 0.0,
        "roughnessFactor": 0.0
      }
    },
    {
      "doubleSided": true,
      "emissiveFactor": [
        0.0,
        1.0,
        0.06518791730249975
      ],
      "name": "DR6_8inch_green_ON",
      "pbrMetallicRoughness": {
        "baseColorTexture": {
          "index": 5
        },
        "metallicFactor": 0.0,
        "roughnessFactor": 0.8040408205773457
      }
    }
  ],
  "meshes": [
    {
      "name": "Cylinder.299_Aluminum.001_0",
      "primitives": [
        {
          "attributes": {
            "NORMAL": 1,
            "POSITION": 0,
            "TEXCOORD_0": 2
          },
          "indices": 3,
          "material": 0,
          "mode": 4
        }
      ]
    },
    {
      "name": "Cylinder.299_inner visor.001_0",
      "primitives": [
        {
          "attributes": {
            "NORMAL": 5,
            "POSITION": 4,
            "TEXCOORD_0": 6
          },
          "indices": 7,
          "material": 1,
          "mode": 4
        }
      ]
    },
    {
      "name": "Cylinder.299_wingnuts_0",
      "primitives": [
        {
          "attributes": {
            "NORMAL": 9,
            "POSITION": 8,
            "TEXCOORD_0": 10
          },
          "indices": 11,
          "material": 2,
          "mode": 4
        }
      ]
    },
    {
      "name": "Cylinder.299_rubber rim_0",
      "primitives": [
        {
          "attributes": {
            "NORMAL": 13,
            "POSITION": 12,
            "TEXCOORD_0": 14
          },
          "indices": 15,
          "material": 3,
          "mode": 4
        }
      ]
    },
    {
      "name": "Cylinder.299_DR6 8inch lens OFF_0",
      "primitives": [
        {
          "attributes": {
            "NORMAL": 17,
            "POSITION": 16,
            "TEXCOORD_0": 18
          },
          "indices": 19,
          "material": 4,
          "mode": 4
        }
      ]
    },
    {
      "name": "Cylinder.299_dr6 8inch amber OFF_0",
      "primitives": [
        {
          "attributes": {
            "NORMAL": 21,
            "POSITION": 20,
            "TEXCOORD_0": 22
          },
          "indices": 23,
          "material": 5,
          "mode": 4
        }
      ]
    },
    {
      "name": "Cylinder.299_dr6 8inch red ON_0",
      "primitives": [
        {
          "attributes": {
            "NORMAL": 25,
            "POSITION": 24,
            "TEXCOORD_0": 26
          },
          "indices": 27,
          "material": 6,
          "mode": 4
        }
      ]
    },
    {
      "name": "Cylinder.313_rubber rim_0",
      "primitives": [
        {
          "attributes": {
            "NORMAL": 29,
            "POSITION": 28,
            "TEXCOORD_0": 30
          },
          "indices": 31,
          "material": 3,
          "mode": 4
        }
      ]
    },
    {
      "name": "Cylinder.313_dr6 8inch amber ON_0",
      "primitives": [
        {
          "attributes": {
            "NORMAL": 33,
            "POSITION": 32,
            "TEXCOORD_0": 34
          },
          "indices": 35,
          "material": 7,
          "mode": 4
        }
      ]
    },
    {
      "name": "Cylinder.313_Aluminum.001_0",
      "primitives": [
        {
          "attributes": {
            "NORMAL": 37,
            "POSITION": 36,
            "TEXCOORD_0": 38
          },
          "indices": 39,
          "material": 0,
          "mode": 4
        }
      ]
    },
    {
      "name": "Cylinder.313_inner visor.001_0",
      "primitives": [
        {
          "attributes": {
            "NORMAL": 41,
            "POSITION": 40,
            "TEXCOORD_0": 42
          },
          "indices": 43,
          "material": 1,
          "mode": 4
        }
      ]
    },
    {
      "name": "Cylinder.313_wingnuts_0",
      "primitives": [
        {
          "attributes": {
            "NORMAL": 45,
            "POSITION": 44,
            "TEXCOORD_0": 46
          },
          "indices": 47,
          "material": 2,
          "mode": 4
        }
      ]
    },
    {
      "name": "Cylinder.313_DR6 8inch lens OFF_0",
      "primitives": [
        {
          "attributes": {
            "NORMAL": 49,
            "POSITION": 48,
            "TEXCOORD_0": 50
          },
          "indices": 51,
          "material": 4,
          "mode": 4
        }
      ]
    },
    {
      "name": "Cylinder.313_dr6 8inch red OFF_0",
      "primitives": [
        {
          "attributes": {
            "NORMAL": 53,
            "POSITION": 52,
            "TEXCOORD_0": 54
          },
          "indices": 55,
          "material": 8,
          "mode": 4
        }
      ]
    },
    {
      "name": "Cylinder.315_Aluminum.001_0",
      "primitives": [
        {
          "attributes": {
            "NORMAL": 57,
            "POSITION": 56,
            "TEXCOORD_0": 58
          },
          "indices": 59,
          "material": 0,
          "mode": 4
        }
      ]
    },
    {
      "name": "Cylinder.315_inner visor.001_0",
      "primitives": [
        {
          "attributes": {
            "NORMAL": 61,
            "POSITION": 60,
            "TEXCOORD_0": 62
          },
          "indices": 63,
          "material": 1,
          "mode": 4
        }
      ]
    },
    {
      "name": "Cylinder.315_wingnuts_0",
      "primitives": [
        {
          "attributes": {
            "NORMAL": 65,
            "POSITION": 64,
            "TEXCOORD_0": 66
          },
          "indices": 67,
          "material": 2,
          "mode": 4
        }
      ]
    },
    {
      "name": "Cylinder.315_rubber rim_0",
      "primitives": [
        {
          "attributes": {
            "NORMAL": 69,
            "POSITION": 68,
            "TEXCOORD_0": 70
          },
          "indices": 71,
          "material": 3,
          "mode": 4
        }
      ]
    },
    {
      "name": "Cylinder.315_DR6 8inch green ON_0",
      "primitives": [
        {
          "attributes": {
            "NORMAL": 73,
            "POSITION": 72,
            "TEXCOORD_0": 74
          },
          "indices": 75,
          "material": 9,
          "mode": 4
        }
      ]
    },
    {
      "name": "Cylinder.315_dr6 8inch amber OFF_0",
      "primitives": [
        {
          "attributes": {
            "NORMAL": 77,
            "POSITION": 76,
            "TEXCOORD_0": 78
          },
          "indices": 79,
          "material": 5,
          "mode": 4
        }
      ]
    },
    {
      "name": "Cylinder.315_dr6 8inch red OFF_0",
      "primitives": [
        {
          "attributes": {
            "NORMAL": 81,
            "POSITION": 80,
            "TEXCOORD_0": 82
          },
          "indices": 83,
          "material": 8,
          "mode": 4
        }
      ]
    }
  ],
  "nodes": [
    {
      "children": [
        1
      ],
      "matrix": [
        1.0,
        0.0,
        0.0,
        0.0,
        0.0,
        2.220446049250313e-16,
        -1.0,
        0.0,
        0.0,
        1.0,
        2.220446049250313e-16,
        0.0,
        0.0,
        0.0,
        0.0,
        1.0
      ],
      "name": "Sketchfab_model"
    },
    {
      "children": [
        2
      ],
      "matrix": [
        0.009999999776482582,
        0.0,
        0.0,
        0.0,
        0.0,
        0.0,
        0.009999999776482582,
        0.0,
        0.0,
        -0.009999999776482582,
        0.0,
        0.0,
        0.0,
        0.0,
        0.0,
        1.0
      ],
      "name": "76fe43a396154223a35ed1c515479137.fbx"
    },
    {
      "children": [
        3,
        11,
        19
      ],
      "name": "RootNode"
    },
    {
      "children": [
        4,
        5,
        6,
        7,
        8,
        9,
        10
      ],
      "matrix": [
        1.4717327168912238,
        1.8407644444553797,
        0.005208826671343063,
        0.0,
        -1.8407717430753099,
        1.4717249143012188,
        0.00481957830038064,
        0.0,
        0.0005116071733279214,
        -0.007078027153507833,
        2.356774851699702,
        0.0,
        5660.07470703125,
        96.06024932861328,
        -6745.07666015625,
        1.0
      ],
      "name": "Cylinder.299"
    },
    {
      "mesh": 0,
      "name": "Cylinder.299_Aluminum.001_0"
    },
    {
      "mesh": 1,
      "name": "Cylinder.299_inner visor.001_0"
    },
    {
      "mesh": 2,
      "name": "Cylinder.299_wingnuts_0"
    },
    {
      "mesh": 3,
      "name": "Cylinder.299_rubber rim_0"
    },
    {
      "mesh": 4,
      "name": "Cylinder.299_DR6 8inch lens OFF_0"
    },
    {
      "mesh": 5,
      "name": "Cylinder.299_dr6 8inch amber OFF_0"
    },
    {
      "mesh": 6,
      "name": "Cylinder.299_dr6 8inch red ON_0"
    },
    {
      "children": [
        12,
        13,
        14,
        15,
        16,
        17,
        18
      ],
      "matrix": [
        51.26106262207031,
        0.0,
        0.0,
        0.0,
        0.0,
        51.26106262207026,
        2.240692030148225e-06,
        0.0,
        0.0,
        -2.240692030148225e-06,
        51.26106262207026,
        0.0,
        5610.13427734375,
        96.11569213867188,
        -6745.1005859375,
        1.0
      ],
      "name": "Cylinder.313"
    },
    {
      "mesh": 7,
      "name": "Cylinder.313_rubber rim_0"
    },
    {
      "mesh": 8,
      "name": "Cylinder.313_dr6 8inch amber ON_0"
    },
    {
      "mesh": 9,
      "name": "Cylinder.313_Aluminum.001_0"
    },
    {
      "mesh": 10,
      "name": "Cylinder.313_inner visor.001_0"
    },
    {
      "mesh": 11,
      "name": "Cylinder.313_wingnuts_0"
    },
    {
      "mesh": 12,
      "name": "Cylinder.313_DR6 8inch lens OFF_0"
    },
    {
      "mesh": 13,
      "name": "Cylinder.313_dr6 8inch red OFF_0"
    },
    {
      "children": [
        20,
        21,
        22,
        23,
        24,
        25,
        26
      ],
      "matrix": [
        1.4717327168912238,
        1.8407644444553797,
        0.005208826671343063,
        0.0,
        -1.8407717430753099,
        1.4717249143012188,
        0.00481957830038064,
        0.0,
        0.0005116071733279214,
        -0.007078027153507833,
        2.356774851699702,
        0.0,
        5561.38427734375,
        96.078857421875,
        -6745.0849609375,
        1.0
      ],
      "name": "Cylinder.315"
    },
    {
      "mesh": 14,
      "name": "Cylinder.315_Aluminum.001_0"
    },
    {
      "mesh": 15,
      "name": "Cylinder.315_inner visor.001_0"
    },
    {
      "mesh": 16,
      "name": "Cylinder.315_wingnuts_0"
    },
    {
      "mesh": 17,
      "name": "Cylinder.315_rubber rim_0"
    },
    {
      "mesh": 18,
      "name": "Cylinder.315_DR6 8inch green ON_0"
    },
    {
      "mesh": 19,
      "name": "Cylinder.315_dr6 8inch amber OFF_0"
    },
    {
      "mesh": 20,
      "name": "Cylinder.315_dr6 8inch red OFF_0"
    }
  ],
  "samplers": [
    {
      "magFilter": 9729,
      "minFilter": 9987,
      "wrapS": 10497,
      "wrapT": 10497
    }
  ],
  "scene": 0,
  "scenes": [
    {
      "name": "Sketchfab_Scene",
      "nodes": [
        0
      ]
    }
  ],
  "textures": [
    {
      "sampler": 0,
      "source": 0
    },
    {
      "sampler": 0,
      "source": 1
    },
    {
      "sampler": 0,
      "source": 2
    },
    {
      "sampler": 0,
      "source": 3
    },
    {
      "sampler": 0,
      "source": 4
    },
    {
      "sampler": 0,
      "source": 5
    }
  ]
}
